<svg width="48" height="48" viewBox="0 0 48 48" fill="none" xmlns="http://www.w3.org/2000/svg">
<path d="M45.1396 12.8046C45.1396 12.8046 45.0802 12.2175 45.0195 11.5609C44.9238 10.5257 44.3007 9.57687 43.3678 9.11789L42.0394 8.46429" stroke="#EB8023" stroke-width="0.992076" stroke-linecap="round"/>
<path d="M46.9998 12.5565C46.9998 12.5565 46.8001 11.4752 46.6274 10.4509C46.4471 9.38202 45.7904 8.38708 44.8412 7.86342L42.7834 6.72809" stroke="#EB8023" stroke-width="0.992076" stroke-linecap="round"/>
<path d="M43.5275 12.8047C43.5275 12.8047 43.5275 12.7649 43.5275 12.6964C43.5275 11.5864 42.8549 10.5864 41.8265 10.1684L41.2953 9.95245" stroke="#EB8023" stroke-width="0.992076" stroke-linecap="round"/>
<path d="M0.124207 32.7704C0.124207 32.6464 0.617371 32.8759 0.617371 32.8759L8.38397 36.4901H33.8547L41.5432 33.1415C41.5453 33.1404 42.038 32.8949 42.0392 33.0175V37.9784C42.0392 37.9834 42.0382 38.2277 41.9162 38.3505C41.7734 38.4941 41.5819 38.5956 41.5764 38.5985L40.1906 39.288V40.3349C39.3427 40.6903 38.4022 40.6394 37.7404 40.5077L34.3527 42.1942H34.7053V43.0624C33.522 43.5584 32.1576 43.2691 31.6232 43.0624V42.4423H10.7267V43.0624C9.54335 43.5584 8.17901 43.2691 7.64471 43.0624V42.4423L4.54315 40.7548L4.56268 40.831C3.28069 41.2277 2.01475 40.9549 1.6037 40.7069V39.1552L0.3703 38.4843C0.364774 38.48 0.306909 38.4347 0.247253 38.3505C0.138184 38.1965 0.124494 37.983 0.124207 37.9784V32.7704Z" fill="#1C4322"/>
<path d="M14.3455 17.4143C14.7764 16.795 16.0784 16.2254 17.8367 18.9006H18.4832C19.1727 17.8272 20.9395 16.0521 22.491 17.5383C21.5429 17.6209 19.7501 18.1326 20.1638 19.5198V20.0149C20.9827 19.8498 22.9041 19.8666 24.0417 21.2532C23.7832 21.5421 22.8783 22.0954 21.3269 21.9963C21.7148 22.9871 22.879 25.3901 24.4304 27.0744V34.258H12.2771C13.0528 32.8957 15.4314 30.4936 18.741 31.7815C18.7841 30.5843 18.6376 27.9173 17.7068 26.8274H15.6384C15.5517 26.9926 15.0688 27.3224 13.8289 27.3225C13.5703 27.1574 12.9751 26.7027 12.6648 26.2073V24.845L14.7332 22.1203V21.0061C14.9917 20.6346 15.6644 19.842 16.2849 19.6438C16.3711 19.1484 16.1812 18.0337 14.7332 17.5383C14.8466 17.5799 14.522 17.4729 14.3455 17.4143ZM17.3611 22.1057C17.0874 22.1059 16.8652 22.3272 16.865 22.6008C16.865 22.8747 17.0873 23.0967 17.3611 23.0969C17.635 23.0969 17.8572 22.8748 17.8572 22.6008C17.8569 22.3271 17.6349 22.1057 17.3611 22.1057Z" fill="#1C4322"/>
<path d="M28.2739 18.509C28.0671 18.7985 27.6547 19.4269 27.6547 19.6252C28.2335 19.5839 29.4892 19.551 29.8862 19.7493C30.3822 19.9973 32.3668 23.0969 33.9789 23.0969C34.1442 23.4689 34.4251 24.3123 34.227 24.7092C33.979 25.2052 33.4828 25.5773 33.2348 25.5774H30.7543C30.4649 25.6602 29.8862 26.1234 29.8862 27.3137V30.5383C29.3076 31.5302 28.1756 33.5872 28.2739 33.886V34.2581H25.2983V27.3137C25.0916 27.0244 24.6285 26.3215 24.4301 25.8254C24.5955 25.1227 25.0255 23.6177 25.4223 23.2209C24.9266 23.097 23.9356 22.8002 23.934 22.6018C24.2234 21.9818 25.1 20.6174 26.2905 20.1213C26.2491 19.708 26.5877 18.8067 28.2739 18.509ZM28.2739 21.6096C28.0001 21.6098 27.7778 21.8319 27.7778 22.1057C27.778 22.3793 28.0003 22.6006 28.2739 22.6008C28.5477 22.6008 28.7697 22.3795 28.77 22.1057C28.77 21.8318 28.5478 21.6096 28.2739 21.6096Z" fill="#EB8023"/>
<path d="M15.2632 40.4588L15.2632 36.4905H27.6642V40.4588C27.565 40.9548 26.9614 41.0788 26.6721 41.0788H15.8833C15.288 41.0788 15.2219 40.6655 15.2632 40.4588Z" fill="#EB8023"/>
<path d="M20.1511 4.05746C20.3448 3.98344 20.5594 3.9807 20.7546 4.05062L41.4646 11.492C41.8091 11.6159 42.0387 11.9423 42.0388 12.3084V31.5301C42.0388 31.8816 41.8266 32.1988 41.5017 32.3328L33.6892 35.5565C33.5843 35.5997 33.4715 35.6219 33.3581 35.6219H8.68038C8.54966 35.6218 8.42014 35.5929 8.30246 35.536L0.613979 31.8153C0.314537 31.6702 0.123754 31.3668 0.123744 31.034V14.6131C0.0129336 14.4275 -0.0302578 14.2008 0.0221817 13.9735C0.0431089 13.8829 0.0784594 13.7992 0.123744 13.7235V12.3084C0.123802 11.9488 0.346421 11.6264 0.682338 11.4979L20.1511 4.05746ZM9.7966 16.3719V20.6932L11.948 19.8133C12.3914 19.6319 12.898 19.8447 13.0798 20.2879C13.2613 20.7317 13.0489 21.2392 12.6052 21.4207L9.87765 22.5369C9.85094 22.5479 9.82368 22.5562 9.7966 22.5643V33.8866H32.738V28.3065C32.738 27.9346 32.9758 27.6038 33.3278 27.4842L40.3025 25.119V21.2205L36.6853 22.1991C36.2226 22.324 35.746 22.0504 35.6208 21.5877C35.496 21.1251 35.7696 20.6485 36.2321 20.5233L40.3025 19.4227V15.3573L34.3503 16.7459V19.3768C34.3503 19.8562 33.9616 20.245 33.4821 20.245C33.0029 20.2447 32.614 19.8561 32.614 19.3768V16.4022L21.3298 12.5692V14.6649C21.3297 15.1442 20.941 15.533 20.4616 15.533C19.9823 15.533 19.5936 15.1442 19.5935 14.6649V12.5389L9.7966 16.3719ZM1.86007 30.4891L8.06027 33.4891V29.1717L1.86007 27.0369V30.4891ZM34.4743 28.9286V33.3543L40.3025 30.9491V26.953L34.4743 28.9286ZM1.86007 25.202L8.06027 27.3358V23.0096L1.86007 21.2664V25.202ZM1.86007 19.4627L8.06027 21.2059V16.7186L1.86007 15.2879V19.4627ZM21.3298 10.7352L33.7614 14.9588C33.831 14.9825 33.8951 15.0167 33.9548 15.0555L40.3025 13.5741V12.9188L21.3298 6.10238V10.7352ZM1.86007 12.9051V13.5067L8.4841 15.035C8.52447 15.011 8.56728 14.99 8.61203 14.9725L19.5935 10.6746V6.12777L1.86007 12.9051Z" fill="#1C4322"/>
</svg>
